<svg version="1.1" xmlns="http://www.w3.org/2000/svg" xmlns:xlink="http://www.w3.org/1999/xlink" viewBox="0 0 50 50" xml:space="preserve">
<style type="text/css">
	.st0{fill:none;stroke:#2B2B2B;stroke-width:1.2503;stroke-linecap:round;stroke-linejoin:round;stroke-miterlimit:10;}
	.st1{fill:#2B2B2B;}
	.st2{fill:#EAEAEA;}
	.st3{fill-rule:evenodd;clip-rule:evenodd;fill:#2B2B2B;}
	.st4{fill-rule:evenodd;clip-rule:evenodd;fill:#FFFFFF;}
	.st5{fill:#2B2B2B;stroke:#FFFFFF;stroke-width:0.6543;stroke-miterlimit:10;}
	.st6{fill:#FFFFFF;stroke:#FFFFFF;stroke-width:0.6543;stroke-miterlimit:10;}
	.st7{fill:#FFFFFF;}
	.st8{fill-rule:evenodd;clip-rule:evenodd;fill:#EAEAEA;}
	.st9{opacity:0.26;fill:#2B2B2B;}
	.st10{fill:none;stroke:#FFFFFF;stroke-width:4.8;stroke-linecap:round;stroke-linejoin:round;stroke-miterlimit:10;}
	.st11{fill:url(#SVGID_1_);}
	.st12{fill:#2B2B2B;stroke:#2B2B2B;stroke-width:5;stroke-linecap:round;stroke-linejoin:round;stroke-miterlimit:10;}
	.st13{fill:none;stroke:#2B2B2B;stroke-width:1.7024;stroke-linecap:round;stroke-linejoin:round;stroke-miterlimit:10;}
	
		.st14{fill-rule:evenodd;clip-rule:evenodd;fill:none;stroke:#2B2B2B;stroke-width:1.447;stroke-linecap:round;stroke-linejoin:round;stroke-miterlimit:10;}
	.st15{fill:none;stroke:#2B2B2B;stroke-width:1.3381;stroke-linecap:round;stroke-linejoin:round;stroke-miterlimit:10;}
	.st16{fill:none;stroke:#2B2B2B;stroke-width:1.3506;stroke-linecap:round;stroke-linejoin:round;stroke-miterlimit:10;}
	.st17{fill:none;stroke:#2B2B2B;stroke-width:1.2101;stroke-linecap:round;stroke-linejoin:round;stroke-miterlimit:10;}
	.st18{fill:none;stroke:#2B2B2B;stroke-width:1.048;stroke-linecap:round;stroke-linejoin:round;stroke-miterlimit:10;}
	.st19{fill:none;stroke:#2B2B2B;stroke-width:0.9144;stroke-linecap:round;stroke-linejoin:round;stroke-miterlimit:10;}
	.st20{fill:none;stroke:#2B2B2B;stroke-width:1.4237;stroke-linecap:round;stroke-linejoin:round;stroke-miterlimit:10;}
	.st21{fill:none;stroke:#2B2B2B;stroke-width:1.3818;stroke-linecap:round;stroke-linejoin:round;stroke-miterlimit:10;}
	.st22{fill:none;stroke:#2B2B2B;stroke-width:4.4961;stroke-linecap:round;stroke-linejoin:round;stroke-miterlimit:10;}
	.st23{fill:#FFFFFF;stroke:#2B2B2B;stroke-width:4.4961;stroke-linecap:round;stroke-linejoin:round;stroke-miterlimit:10;}
	.st24{fill:#FFFFFF;stroke:#2B2B2B;stroke-width:3.4252;stroke-linecap:round;stroke-linejoin:round;stroke-miterlimit:10;}
	.st25{fill:#2B2B2B;stroke:#2B2B2B;stroke-width:0.7099;stroke-linecap:round;stroke-linejoin:round;stroke-miterlimit:10;}
	.st26{fill:#2B2B2B;stroke:#2B2B2B;stroke-width:1.2625;stroke-miterlimit:10;}
	.st27{fill:#2B2B2B;stroke:#2B2B2B;stroke-width:1.3342;stroke-miterlimit:10;}
	.st28{fill:none;stroke:#2B2B2B;stroke-width:2.525;stroke-miterlimit:10;}
	.st29{fill:#2B2B2B;stroke:#2B2B2B;stroke-width:1.4677;stroke-miterlimit:10;}
	.st30{fill:#FFFFFF;stroke:#2B2B2B;stroke-width:3.03;stroke-miterlimit:10;}
	.st31{fill:#FF0084;}
	.st32{fill:none;stroke:#FFFFFF;stroke-width:4.7419;stroke-linecap:round;stroke-linejoin:round;stroke-miterlimit:10;}
	.st33{fill:#FFFFFF;stroke:#2B2B2B;stroke-width:4.8946;stroke-miterlimit:10;}
	.st34{fill:#FFFFFF;stroke:#2B2B2B;stroke-width:4.8946;stroke-linecap:round;stroke-linejoin:round;stroke-miterlimit:10;}
	.st35{fill:#FF31A2;}
	.st36{fill:#FC8DCA;}
	.st37{fill:#FC54B8;}
	.st38{fill:none;stroke:#FF0084;stroke-width:1.493;stroke-linecap:round;stroke-linejoin:round;stroke-miterlimit:10;}
	.st39{fill:none;stroke:#FF0084;stroke-width:2.2395;stroke-linecap:round;stroke-linejoin:round;stroke-miterlimit:10;}
	.st40{fill:#FFFFFF;stroke:#FF0084;stroke-width:1.1944;stroke-linecap:round;stroke-linejoin:round;stroke-miterlimit:10;}
	.st41{fill:#FFFFFF;stroke:#FF0084;stroke-width:2.2395;stroke-linecap:round;stroke-linejoin:round;stroke-miterlimit:10;}
	.st42{fill:none;stroke:#FF0084;stroke-width:1.717;stroke-linecap:round;stroke-linejoin:round;stroke-miterlimit:10;}
	.st43{fill:#FF0084;stroke:#FF0084;stroke-width:0.3733;stroke-miterlimit:10;}
	.st44{fill:#FFFFFF;stroke:#FF0084;stroke-width:2.1055;stroke-linecap:round;stroke-linejoin:round;stroke-miterlimit:10;}
	.st45{fill:none;stroke:#FF0084;stroke-width:1.8247;stroke-linecap:round;stroke-linejoin:round;stroke-miterlimit:10;}
	.st46{fill:#FF0084;stroke:#FF0084;stroke-width:0.8853;stroke-miterlimit:10;}
	.st47{fill:#FF0084;stroke:#FF0084;stroke-width:0.681;stroke-miterlimit:10;}
	.st48{fill:#FF0084;stroke:#FF0084;stroke-width:0.5788;stroke-miterlimit:10;}
	.st49{fill:none;stroke:#FF0084;stroke-width:1.2938;stroke-miterlimit:10;}
	.st50{fill:#FF0084;stroke:#FF0084;stroke-width:1.1775;stroke-miterlimit:10;}
	.st51{fill:#FFFFFF;stroke:#FFFFFF;stroke-width:0.681;stroke-miterlimit:10;}
	.st52{fill:#FF0084;stroke:#FF0084;stroke-width:1.0895;stroke-miterlimit:10;}
	.st53{fill:#FFFFFF;stroke:#FF0084;stroke-width:2.1233;stroke-linecap:round;stroke-linejoin:round;stroke-miterlimit:10;}
</style>
		<path class="st7" d="M48.2,10.9C45.6,9.6,42.8,9,39.8,9c-4.1,0-8.2,1.1-12.1,2.2c-3.9,1.1-8,2.2-11.9,2.2c-2.9,0-5.6-0.6-8-1.8
			c-0.1-0.1-0.3-0.1-0.4,0c-0.1,0.1-0.2,0.2-0.2,0.3V32c0,0.1,0.1,0.3,0.2,0.3c2.6,1.3,5.3,1.9,8.4,1.9c4.1,0,8.2-1.1,12.1-2.2
			c3.9-1.1,8-2.2,11.9-2.2c2.9,0,5.6,0.6,8,1.8c0.1,0.1,0.3,0.1,0.4,0c0.1-0.1,0.2-0.2,0.2-0.3V11.3C48.4,11.1,48.3,11,48.2,10.9z"
			/>
			<path class="st46" d="M48.2,10.9C45.6,9.6,42.8,9,39.8,9c-4.1,0-8.2,1.1-12.1,2.2c-3.9,1.1-8,2.2-11.9,2.2c-2.9,0-5.6-0.6-8-1.8
				c-0.1-0.1-0.3-0.1-0.4,0c-0.1,0.1-0.2,0.2-0.2,0.3V32c0,0.1,0.1,0.3,0.2,0.3c2.6,1.3,5.3,1.9,8.4,1.9c4.1,0,8.2-1.1,12.1-2.2
				c3.9-1.1,8-2.2,11.9-2.2c2.9,0,5.6,0.6,8,1.8c0.1,0.1,0.3,0.1,0.4,0c0.1-0.1,0.2-0.2,0.2-0.3V11.3C48.4,11.1,48.3,11,48.2,10.9z
				 M15.7,33.5c-2.8,0-5.4-0.6-7.8-1.7V12.5c2.4,1.1,5,1.7,7.8,1.7c4.1,0,8.2-1.1,12.1-2.2c3.9-1.1,8-2.2,11.9-2.2
				c2.8,0,5.4,0.6,7.8,1.7v19.2c-2.4-1.1-5-1.7-7.8-1.7c-4.1,0-8.2,1.1-12.1,2.2C23.7,32.4,19.7,33.5,15.7,33.5z"/>
			<path class="st47" d="M45.2,32.4c-0.2,0-0.4,0.2-0.4,0.4V34c-6.7-3.1-13.4-1.2-20,0.6c-6.5,1.8-13.2,3.6-19.8,0.5V15.2
				c0-0.2-0.2-0.4-0.4-0.4c-0.2,0-0.4,0.2-0.4,0.4v20.1c0,0.1,0.1,0.3,0.2,0.3c6.7,3.4,13.3,1.7,20.5-0.3c6.6-1.8,13.4-3.7,20-0.4
				c0.1,0.1,0.3,0.1,0.4,0c0.1-0.1,0.2-0.2,0.2-0.3v-1.9C45.6,32.5,45.4,32.4,45.2,32.4z"/>
			<path class="st48" d="M42.5,36c-0.2,0-0.4,0.2-0.4,0.4v1.1c-6.7-3.1-13.4-1.2-20,0.6c-6.5,1.8-13.2,3.6-19.8,0.5V18.7
				c0-0.2-0.2-0.4-0.4-0.4c-0.2,0-0.4,0.2-0.4,0.4v20.1c0,0.1,0.1,0.3,0.2,0.3c6.7,3.4,13.3,1.7,20.5-0.3c6.6-1.8,13.4-3.7,20-0.4
				c0.1,0.1,0.3,0.1,0.4,0c0.1-0.1,0.2-0.2,0.2-0.3v-1.7C42.9,36.1,42.7,36,42.5,36z"/>
			<path class="st49" d="M40.1,26.8c-4.2,0-8.4,1.2-12.5,2.3c-4,1.1-8.2,2.3-12.3,2.3c-0.9,0-1.8-0.1-2.7-0.2
				c-0.1,0-0.1-0.1-0.1-0.1c-0.1-1.4-1.2-2.7-2.6-3.3c0,0-0.1-0.1-0.1-0.1v-9.2c0-0.1,0.1-0.1,0.1-0.1c1.3,0.1,2.3-0.8,2.5-2
				c0-0.1,0.1-0.1,0.1-0.1c0.9,0.1,1.8,0.2,2.7,0.2c4.2,0,8.4-1.2,12.5-2.3c4-1.1,8.2-2.3,12.3-2.3c0.9,0,1.8,0.1,2.7,0.2
				c0.1,0,0.1,0.1,0.1,0.1c0.2,1.3,1.2,2.6,2.6,3.2c0,0,0.1,0.1,0.1,0.1v9.2c0,0.1-0.1,0.1-0.1,0.1c-1.3-0.1-2.4,0.8-2.6,2.1
				c0,0.1-0.1,0.1-0.1,0.1C41.9,26.9,41,26.8,40.1,26.8z"/>

				<path class="st50" d="M27.6,16c-2.7,0.8-4.9,3.7-4.9,6.6c0,3,2.3,5,5.1,4.2c2.7-0.8,4.9-3.7,4.9-6.6
					C32.7,17.3,30.4,15.3,27.6,16z"/>
				<path class="st51" d="M27.7,20.8c-0.5,0.1-1,0-1.1-0.2c-0.1,0-0.1-0.1-0.1-0.3c0-0.5,0.6-1.2,1.4-1.4c0.4-0.1,0.8-0.1,1,0.1
					c0.1,0.1,0.2,0.2,0.2,0.4c0,0.2,0.2,0.4,0.4,0.4c0.2,0,0.4-0.2,0.4-0.4c0-0.4-0.2-0.7-0.5-1c-0.3-0.2-0.7-0.3-1.2-0.3V18
					c0-0.2-0.2-0.4-0.4-0.4c-0.2,0-0.4,0.2-0.4,0.4v0.4c-1,0.4-1.7,1.2-1.7,2c0,0.3,0.1,0.6,0.4,0.8c0.4,0.3,1,0.4,1.7,0.4
					c0.8-0.1,1.1,0,1.3,0.2c0.1,0.1,0.2,0.3,0.2,0.5c0,0.7-0.7,1.5-1.6,1.7c-0.4,0.1-0.9,0.1-1.1-0.1c-0.2-0.1-0.3-0.3-0.3-0.6
					c0-0.2-0.2-0.4-0.4-0.4c-0.2,0-0.4,0.2-0.4,0.4c0,0.5,0.2,0.9,0.6,1.2c0.3,0.2,0.7,0.3,1.1,0.3c0.1,0,0.1,0,0.2,0V25
					c0,0.2,0.2,0.4,0.4,0.4c0.2,0,0.4-0.2,0.4-0.4v-0.4c1.1-0.4,1.9-1.4,1.9-2.3c0-0.4-0.1-0.8-0.4-1C29.1,20.9,28.5,20.7,27.7,20.8
					z"/>

			<path class="st52" d="M38.7,20.4c-0.3,0-0.6-0.4-0.6-0.9c0-0.5,0.3-1,0.7-1c0.3,0,0.6,0.4,0.6,0.9C39.4,19.9,39.1,20.4,38.7,20.4
				L38.7,20.4z"/>
			<path class="st52" d="M16.7,24.8c-0.3,0-0.6-0.4-0.6-0.9c0-1.2,1.3-1.3,1.3-0.1C17.4,24.2,17.1,24.7,16.7,24.8z"/>
</svg>
